<svg xmlns="http://www.w3.org/2000/svg" viewBox="0 0 1370 1370" width="1370" height="1370"><title>Eitr logo</title><g fill="#32644c" transform="translate(0 0) scale(1)"><path fill-rule="evenodd" d="M673,140 L713,140 L713,141 L722,141 L722,142 L742,145 L742,146 L745,146 L745,147 L749,147 L749,148 L761,151 L763,153 L766,153 L768,155 L771,155 L773,157 L776,157 L776,158 L784,161 L785,163 L793,166 L794,168 L798,169 L799,171 L801,171 L802,173 L807,175 L809,178 L811,178 L813,181 L815,181 L819,186 L821,186 L842,207 L842,209 L846,212 L846,214 L850,217 L852,222 L857,227 L858,231 L860,232 L862,238 L864,239 L864,241 L865,241 L865,243 L866,243 L866,245 L867,245 L867,247 L868,247 L868,249 L869,249 L869,251 L870,251 L870,253 L873,257 L873,260 L875,262 L875,265 L876,265 L876,268 L877,268 L877,271 L878,271 L878,275 L879,275 L879,278 L880,278 L880,281 L881,281 L881,285 L882,285 L884,299 L885,299 L886,312 L887,312 L887,321 L888,321 L888,330 L889,330 L889,339 L890,339 L891,350 L892,350 L892,355 L893,355 L895,367 L896,367 L896,370 L897,370 L897,374 L898,374 L902,389 L903,389 L903,391 L905,393 L905,396 L907,398 L907,401 L909,403 L909,406 L912,410 L912,413 L913,413 L917,423 L919,424 L923,434 L925,435 L928,443 L930,444 L930,446 L932,447 L933,451 L938,456 L938,458 L940,459 L942,464 L945,466 L945,468 L948,470 L948,472 L952,475 L952,477 L956,480 L956,482 L963,488 L963,490 L982,509 L984,509 L990,516 L992,516 L995,520 L997,520 L999,523 L1001,523 L1004,527 L1006,527 L1008,530 L1010,530 L1011,532 L1013,532 L1017,536 L1021,537 L1025,541 L1031,543 L1032,545 L1034,545 L1034,546 L1036,546 L1036,547 L1038,547 L1038,548 L1040,548 L1040,549 L1042,549 L1042,550 L1044,550 L1044,551 L1046,551 L1046,552 L1048,552 L1052,555 L1055,555 L1055,556 L1060,557 L1062,559 L1065,559 L1065,560 L1068,560 L1068,561 L1071,561 L1071,562 L1074,562 L1074,563 L1077,563 L1077,564 L1080,564 L1080,565 L1083,565 L1083,566 L1087,566 L1087,567 L1095,568 L1095,569 L1098,569 L1098,570 L1102,570 L1102,571 L1108,572 L1110,574 L1113,574 L1113,575 L1115,575 L1119,578 L1122,578 L1125,581 L1133,584 L1138,589 L1143,591 L1147,596 L1149,596 L1157,604 L1157,606 L1163,611 L1163,613 L1165,614 L1165,616 L1167,617 L1167,619 L1169,620 L1169,622 L1173,626 L1174,630 L1176,631 L1176,633 L1177,633 L1177,635 L1178,635 L1178,637 L1179,637 L1179,639 L1180,639 L1180,641 L1183,645 L1184,651 L1186,653 L1186,656 L1187,656 L1187,659 L1188,659 L1188,662 L1189,662 L1191,673 L1192,673 L1193,684 L1194,684 L1194,695 L1195,695 L1195,706 L1194,706 L1193,721 L1192,721 L1192,725 L1191,725 L1191,729 L1190,729 L1187,741 L1186,741 L1180,755 L1178,756 L1178,758 L1176,759 L1174,764 L1171,766 L1171,768 L1166,772 L1166,774 L1162,778 L1160,778 L1152,787 L1150,787 L1148,790 L1146,790 L1141,795 L1137,796 L1136,798 L1134,798 L1133,800 L1127,802 L1126,804 L1124,804 L1124,805 L1122,805 L1122,806 L1120,806 L1120,807 L1118,807 L1118,808 L1116,808 L1116,809 L1114,809 L1114,810 L1112,810 L1112,811 L1110,811 L1110,812 L1096,818 L1095,820 L1091,821 L1090,823 L1084,825 L1083,827 L1081,827 L1080,829 L1078,829 L1077,831 L1072,833 L1065,840 L1063,840 L1060,844 L1058,844 L1041,861 L1041,863 L1036,867 L1036,869 L1029,876 L1029,878 L1027,879 L1026,883 L1022,887 L1018,897 L1016,898 L1016,900 L1015,900 L1015,902 L1014,902 L1014,904 L1013,904 L1013,906 L1010,910 L1010,913 L1007,917 L1004,928 L1002,930 L1001,936 L999,938 L996,950 L994,952 L993,958 L991,960 L991,963 L989,965 L989,968 L987,970 L985,978 L984,978 L984,980 L983,980 L983,982 L982,982 L982,984 L981,984 L981,986 L980,986 L980,988 L977,992 L977,995 L975,996 L975,999 L974,999 L973,1003 L971,1004 L968,1012 L966,1013 L965,1017 L961,1021 L960,1025 L958,1026 L958,1028 L956,1029 L954,1034 L951,1036 L951,1038 L945,1044 L945,1046 L942,1048 L942,1050 L938,1053 L938,1055 L931,1061 L931,1063 L912,1082 L910,1082 L905,1088 L903,1088 L900,1092 L898,1092 L896,1095 L894,1095 L892,1098 L890,1098 L884,1104 L877,1107 L876,1109 L869,1112 L868,1114 L864,1115 L863,1117 L861,1117 L861,1118 L859,1118 L859,1119 L857,1119 L857,1120 L855,1120 L855,1121 L853,1121 L853,1122 L851,1122 L851,1123 L849,1123 L849,1124 L847,1124 L847,1125 L845,1125 L845,1126 L843,1126 L839,1129 L836,1129 L834,1131 L831,1131 L831,1132 L829,1132 L827,1134 L824,1134 L824,1135 L821,1135 L819,1137 L816,1137 L816,1138 L813,1138 L813,1139 L810,1139 L810,1140 L806,1140 L806,1141 L802,1141 L802,1142 L799,1142 L799,1143 L791,1144 L791,1145 L775,1147 L775,1148 L769,1148 L769,1149 L761,1149 L761,1150 L750,1150 L750,1151 L713,1151 L713,1150 L694,1149 L694,1148 L688,1148 L688,1147 L683,1147 L683,1146 L678,1146 L678,1145 L666,1143 L666,1142 L663,1142 L663,1141 L648,1137 L646,1135 L643,1135 L639,1132 L636,1132 L636,1131 L634,1131 L634,1130 L632,1130 L632,1129 L618,1123 L617,1121 L615,1121 L612,1118 L608,1117 L607,1115 L605,1115 L604,1113 L602,1113 L598,1109 L594,1108 L592,1105 L590,1105 L588,1102 L583,1100 L581,1097 L576,1095 L574,1092 L572,1092 L568,1088 L564,1087 L563,1085 L557,1083 L556,1081 L554,1081 L554,1080 L552,1080 L552,1079 L550,1079 L550,1078 L548,1078 L544,1075 L541,1075 L537,1072 L534,1072 L534,1071 L531,1071 L531,1070 L528,1070 L528,1069 L525,1069 L523,1067 L519,1067 L519,1066 L516,1066 L516,1065 L471,1056 L471,1055 L468,1055 L466,1053 L463,1053 L463,1052 L454,1050 L450,1047 L447,1047 L447,1046 L443,1045 L442,1043 L439,1043 L438,1041 L430,1038 L429,1036 L422,1033 L421,1031 L419,1031 L415,1027 L413,1027 L410,1023 L408,1023 L405,1019 L403,1019 L395,1010 L393,1010 L388,1005 L388,1003 L379,995 L379,993 L372,986 L372,984 L369,982 L368,978 L366,977 L366,975 L364,974 L364,972 L360,968 L358,962 L356,961 L356,959 L355,959 L355,957 L354,957 L354,955 L353,955 L353,953 L350,949 L350,946 L347,942 L346,936 L344,934 L344,931 L343,931 L341,923 L340,923 L340,919 L339,919 L339,916 L338,916 L336,903 L335,903 L335,899 L334,899 L333,887 L332,887 L332,881 L331,881 L331,873 L330,873 L330,862 L329,862 L329,851 L328,851 L326,828 L325,828 L323,813 L322,813 L322,809 L321,809 L321,805 L320,805 L320,801 L319,801 L317,792 L315,790 L315,787 L312,783 L312,780 L311,780 L309,774 L307,773 L304,765 L302,764 L302,762 L300,761 L300,759 L298,758 L296,753 L293,751 L293,749 L290,747 L290,745 L285,741 L285,739 L280,735 L280,733 L275,729 L275,727 L271,724 L271,722 L269,721 L269,719 L267,718 L267,716 L265,715 L265,713 L261,709 L260,705 L258,704 L258,702 L257,702 L257,700 L256,700 L256,698 L255,698 L255,696 L252,692 L252,689 L250,687 L250,684 L248,682 L248,678 L247,678 L247,675 L246,675 L246,672 L245,672 L245,668 L244,668 L244,664 L243,664 L243,660 L242,660 L242,655 L241,655 L240,640 L239,640 L239,604 L240,604 L240,596 L241,596 L242,583 L243,583 L246,567 L247,567 L247,564 L248,564 L248,561 L249,561 L249,558 L250,558 L250,554 L252,552 L252,549 L253,549 L253,546 L256,542 L256,539 L257,539 L257,537 L260,533 L260,530 L261,530 L262,526 L264,525 L269,513 L273,509 L274,505 L276,504 L276,502 L278,501 L278,499 L280,498 L280,496 L282,495 L284,490 L291,483 L291,481 L296,477 L296,475 L302,470 L302,468 L329,441 L331,441 L337,434 L339,434 L342,430 L344,430 L352,422 L357,420 L359,417 L361,417 L363,414 L365,414 L371,408 L373,408 L378,403 L380,403 L382,400 L384,400 L386,397 L388,397 L391,393 L393,393 L403,383 L405,383 L415,372 L417,372 L427,362 L427,360 L435,353 L435,351 L444,342 L444,340 L447,338 L447,336 L450,334 L450,332 L452,331 L452,329 L454,328 L454,326 L456,325 L456,323 L460,319 L460,317 L463,314 L464,310 L466,309 L469,301 L471,300 L471,298 L474,294 L474,291 L475,291 L475,289 L476,289 L476,287 L477,287 L477,285 L478,285 L478,283 L479,283 L485,269 L487,268 L488,264 L490,263 L492,257 L494,256 L494,254 L496,253 L496,251 L498,250 L500,245 L503,243 L503,241 L506,239 L506,237 L509,235 L509,233 L516,227 L516,225 L539,202 L541,202 L546,196 L548,196 L551,192 L553,192 L556,188 L558,188 L560,185 L562,185 L563,183 L568,181 L573,176 L577,175 L578,173 L582,172 L583,170 L589,168 L590,166 L592,166 L592,165 L594,165 L594,164 L596,164 L596,163 L598,163 L598,162 L600,162 L600,161 L602,161 L606,158 L609,158 L609,157 L614,156 L616,154 L619,154 L621,152 L624,152 L624,151 L627,151 L627,150 L630,150 L630,149 L633,149 L633,148 L637,148 L637,147 L640,147 L640,146 L649,145 L649,144 L653,144 L653,143 L659,143 L659,142 L673,141 Z M718,368 L715,369 L710,374 L708,374 L707,376 L705,376 L704,378 L702,378 L699,382 L697,382 L696,384 L694,384 L693,386 L691,386 L690,388 L688,388 L687,390 L685,390 L684,392 L682,392 L681,394 L679,394 L678,396 L676,396 L675,398 L670,400 L668,403 L666,403 L665,405 L660,407 L658,410 L656,410 L655,412 L653,412 L652,414 L650,414 L649,416 L644,418 L642,421 L640,421 L639,423 L637,423 L636,425 L634,425 L633,427 L631,427 L630,429 L628,429 L627,431 L625,431 L624,433 L619,435 L617,438 L615,438 L614,440 L612,440 L611,442 L609,442 L608,444 L603,446 L601,449 L599,449 L598,451 L596,451 L595,453 L593,453 L592,455 L590,455 L589,457 L584,459 L582,462 L580,462 L579,464 L577,464 L576,466 L571,468 L569,471 L565,472 L563,475 L561,475 L560,477 L555,479 L553,482 L551,482 L550,484 L548,484 L547,486 L545,486 L544,488 L542,488 L541,490 L539,490 L538,492 L533,494 L531,497 L529,497 L528,499 L526,499 L525,501 L523,501 L522,503 L520,503 L519,505 L514,507 L512,510 L510,510 L509,512 L507,512 L504,515 L504,898 L507,901 L509,901 L512,904 L519,907 L520,909 L522,909 L523,911 L525,911 L526,913 L528,913 L529,915 L535,917 L540,922 L542,922 L545,925 L547,925 L548,927 L552,928 L553,930 L555,930 L559,934 L561,934 L564,937 L566,937 L567,939 L571,940 L573,943 L575,943 L578,946 L582,947 L583,949 L585,949 L586,951 L588,951 L592,955 L594,955 L597,958 L601,959 L602,961 L604,961 L605,963 L607,963 L611,967 L615,968 L616,970 L618,970 L619,972 L621,972 L625,976 L629,977 L630,979 L634,980 L635,982 L637,982 L641,986 L645,987 L646,989 L648,989 L649,991 L651,991 L655,995 L659,996 L660,998 L667,1001 L671,1005 L675,1006 L676,1008 L678,1008 L682,1012 L684,1012 L687,1015 L691,1016 L692,1018 L696,1019 L697,1021 L699,1021 L702,1024 L705,1024 L706,1022 L708,1022 L711,1019 L715,1018 L716,1016 L718,1016 L722,1012 L724,1012 L727,1009 L731,1008 L735,1004 L739,1003 L743,999 L747,998 L748,996 L752,995 L756,991 L758,991 L761,988 L763,988 L764,986 L768,985 L769,983 L771,983 L775,979 L779,978 L780,976 L782,976 L786,972 L788,972 L791,969 L795,968 L799,964 L801,964 L804,961 L808,960 L809,958 L811,958 L815,954 L817,954 L820,951 L824,950 L825,948 L829,947 L830,945 L832,945 L833,943 L835,943 L839,939 L845,937 L849,933 L851,933 L854,930 L858,929 L859,927 L861,927 L865,923 L869,922 L870,920 L874,919 L875,917 L877,917 L881,913 L885,912 L886,910 L890,909 L895,904 L900,902 L899,900 L897,900 L894,897 L890,896 L886,892 L880,890 L876,886 L870,884 L869,882 L865,881 L864,879 L860,878 L859,876 L855,875 L854,873 L850,872 L849,870 L845,869 L844,867 L840,866 L839,864 L835,863 L834,861 L830,860 L829,858 L825,857 L824,855 L820,854 L819,852 L813,850 L812,848 L808,847 L807,845 L803,844 L802,842 L798,841 L797,839 L793,838 L792,836 L788,835 L787,833 L783,832 L782,830 L778,829 L777,827 L773,826 L772,824 L766,822 L765,820 L761,819 L760,817 L754,815 L753,813 L749,812 L748,810 L742,808 L741,806 L737,805 L736,803 L732,802 L731,800 L727,799 L726,797 L720,795 L719,793 L712,796 L711,798 L705,800 L704,802 L696,805 L695,807 L687,810 L686,812 L678,815 L677,817 L667,821 L666,823 L658,826 L657,828 L651,830 L650,832 L638,837 L637,839 L635,839 L632,842 L624,845 L623,847 L613,851 L612,853 L602,857 L601,859 L598,859 L598,770 L599,769 L601,769 L602,767 L604,767 L608,763 L612,762 L613,760 L617,759 L618,757 L622,756 L623,754 L630,751 L631,749 L635,748 L636,746 L643,743 L644,741 L648,740 L649,738 L653,737 L654,735 L658,734 L659,732 L666,729 L667,727 L671,726 L672,724 L676,723 L677,721 L681,720 L682,718 L684,718 L688,714 L692,713 L693,711 L699,709 L703,705 L705,705 L708,702 L712,701 L713,699 L717,698 L718,696 L720,696 L721,694 L723,694 L726,691 L730,690 L731,688 L733,688 L737,684 L739,684 L742,681 L746,680 L747,678 L751,677 L755,673 L759,672 L763,668 L765,668 L768,665 L772,664 L776,660 L778,660 L781,657 L785,656 L786,654 L788,654 L792,650 L794,650 L797,647 L801,646 L805,642 L807,642 L810,639 L814,638 L818,634 L820,634 L823,631 L827,630 L828,628 L830,628 L834,624 L840,622 L841,620 L843,620 L847,616 L851,615 L855,611 L859,610 L860,608 L864,607 L865,605 L869,604 L870,602 L874,601 L875,599 L879,598 L880,596 L882,596 L883,594 L885,594 L886,592 L890,591 L891,589 L893,589 L895,587 L893,584 L891,584 L888,581 L882,579 L881,577 L879,577 L878,575 L872,573 L868,569 L862,567 L861,565 L857,564 L856,562 L850,560 L849,558 L845,557 L844,555 L838,553 L837,551 L833,550 L832,548 L828,547 L827,545 L821,543 L820,541 L816,540 L812,536 L810,536 L810,535 L808,535 L805,532 L800,530 L799,532 L797,532 L794,535 L792,535 L791,537 L787,538 L786,540 L784,540 L783,542 L781,542 L780,544 L778,544 L774,548 L770,549 L769,551 L762,554 L761,556 L759,556 L755,560 L751,561 L750,563 L748,563 L747,565 L745,565 L744,567 L742,567 L741,569 L739,569 L735,573 L731,574 L730,576 L728,576 L727,578 L725,578 L722,581 L718,582 L714,586 L710,587 L709,589 L707,589 L706,591 L704,591 L700,595 L696,596 L695,598 L693,598 L689,602 L685,603 L684,605 L682,605 L678,609 L674,610 L673,612 L671,612 L667,616 L663,617 L662,619 L660,619 L659,621 L657,621 L656,623 L654,623 L650,627 L646,628 L645,630 L638,633 L637,635 L635,635 L631,639 L629,639 L626,642 L622,643 L621,645 L619,645 L618,647 L616,647 L615,649 L613,649 L609,653 L607,653 L604,656 L598,658 L598,566 L601,565 L602,563 L604,563 L605,561 L607,561 L608,559 L610,559 L611,557 L613,557 L614,555 L616,555 L617,553 L619,553 L620,551 L625,549 L627,546 L634,543 L636,540 L643,537 L644,535 L646,535 L647,533 L649,533 L650,531 L652,531 L653,529 L658,527 L660,524 L662,524 L663,522 L665,522 L666,520 L668,520 L669,518 L671,518 L672,516 L674,516 L675,514 L677,514 L678,512 L680,512 L681,510 L683,510 L684,508 L686,508 L687,506 L689,506 L690,504 L692,504 L693,502 L695,502 L696,500 L698,500 L699,498 L701,498 L702,496 L704,496 L705,494 L707,494 L708,492 L710,492 L711,490 L713,490 L714,488 L716,488 L718,486 Z"/></g></svg>
